<svg width="48.000000" height="48.000000" viewBox="0 0 48 48" fill="none" xmlns="http://www.w3.org/2000/svg" xmlns:xlink="http://www.w3.org/1999/xlink">
	<desc>
			Created with Pixso.
	</desc>
	<defs/>
	<path id="Ellipse 1" d="M47 23.5C47 29.98 44.36 35.85 40.11 40.11C35.53 44.7 29.51 46.99 23.5 46.99C17.01 47 11.14 44.36 6.88 40.11C2.29 35.53 0 29.51 0 23.5C3.05e-5 17.01 2.63 11.14 6.88 6.88C11.46 2.29 17.48 0 23.5 0C29.98 0 35.85 2.63 40.11 6.88L37.54 9.45C33.67 5.57 28.58 3.63 23.5 3.63C18.01 3.63 13.05 5.85 9.45 9.45C5.57 13.32 3.63 18.41 3.63 23.5C3.63 28.98 5.85 33.94 9.45 37.54C13.32 41.42 18.41 43.36 23.5 43.36C28.98 43.36 33.94 41.14 37.54 37.54C41.42 33.67 43.36 28.58 43.36 23.5L47 23.5Z" fill="#FFFFFF" fill-opacity="1.000000" fill-rule="evenodd"/>
	<path id="Ellipse 2" d="M15.01 38.8C10.79 36.46 7.91 32.62 6.68 28.32C5.34 23.68 6.02 18.93 8.19 15.01C10.53 10.79 14.37 7.91 18.67 6.68C23.31 5.34 28.06 6.02 31.98 8.19C36.2 10.53 39.08 14.37 40.31 18.67C41.65 23.31 40.97 28.06 38.8 31.98C36.46 36.2 32.62 39.08 28.32 40.32L27.57 37.72C31.5 36.59 34.6 33.98 36.43 30.67C38.41 27.1 38.76 23.06 37.71 19.42C36.59 15.49 33.98 12.39 30.67 10.56C27.1 8.58 23.06 8.23 19.42 9.28C15.49 10.4 12.39 13.01 10.56 16.32C8.58 19.89 8.23 23.93 9.28 27.57C10.4 31.5 13.01 34.6 16.32 36.43L15.01 38.8Z" fill="#FFFFFF" fill-opacity="1.000000" fill-rule="evenodd"/>
	<path id="Ellipse 3" d="M23.5 11C26.94 11 30.07 12.4 32.33 14.66C34.77 17.09 35.99 20.29 35.99 23.5C36 26.94 34.59 30.07 32.33 32.33C29.9 34.77 26.7 35.99 23.5 35.99C20.05 36 16.92 34.59 14.66 32.33C12.22 29.9 11 26.7 11 23.5C11 20.05 12.4 16.92 14.66 14.66L16.02 16.02C13.96 18.08 12.93 20.79 12.93 23.5C12.93 26.41 14.11 29.05 16.02 30.97C18.08 33.03 20.79 34.06 23.5 34.06C26.41 34.06 29.05 32.88 30.97 30.97C33.03 28.91 34.06 26.2 34.06 23.5C34.06 20.58 32.88 17.94 30.97 16.02C28.91 13.96 26.2 12.93 23.5 12.93L23.5 11Z" fill="#FFFFFF" fill-opacity="1.000000" fill-rule="evenodd"/>
	<path id="Ellipse 4" d="M16.03 19.44C17.14 17.38 19 15.97 21.08 15.35C23.33 14.68 25.64 14.99 27.55 16.03C29.61 17.14 31.02 19 31.64 21.08C32.31 23.33 32 25.64 30.96 27.55C29.85 29.61 28 31.02 25.91 31.64C23.66 32.31 21.35 32 19.44 30.96C17.38 29.85 15.97 28 15.35 25.91L16.72 25.5C17.28 27.37 18.54 28.84 20.13 29.7C21.84 30.63 23.77 30.78 25.5 30.27C27.37 29.71 28.84 28.45 29.7 26.86C30.63 25.15 30.78 23.22 30.27 21.49C29.71 19.62 28.45 18.15 26.86 17.29C25.15 16.36 23.22 16.21 21.49 16.72C19.62 17.28 18.15 18.54 17.29 20.12L16.03 19.44Z" fill="#FFFFFF" fill-opacity="1.000000" fill-rule="evenodd"/>
	<path id="Ellipse 5" d="M27.21 26.03C26.52 27.05 25.47 27.7 24.33 27.92C23.11 28.15 21.92 27.86 20.96 27.21C19.94 26.52 19.29 25.47 19.08 24.33C18.84 23.11 19.13 21.92 19.78 20.96C20.47 19.94 21.52 19.29 22.66 19.08C23.88 18.84 25.07 19.13 26.03 19.78C27.05 20.47 27.7 21.52 27.92 22.66L27.09 22.81C26.9 21.82 26.33 21 25.55 20.47C24.72 19.9 23.73 19.73 22.81 19.9C21.82 20.09 21 20.66 20.47 21.44C19.9 22.27 19.73 23.26 19.9 24.18C20.09 25.17 20.66 25.99 21.44 26.52C22.27 27.09 23.26 27.26 24.18 27.09C25.17 26.9 25.99 26.33 26.52 25.55L27.21 26.03Z" fill="#FFFFFF" fill-opacity="1.000000" fill-rule="evenodd"/>
	<path id="Ellipse 6" d="M22.7 21.12C23.36 20.91 24.04 20.97 24.61 21.26C25.23 21.57 25.66 22.1 25.87 22.7C26.08 23.36 26.02 24.04 25.73 24.61C25.42 25.23 24.9 25.66 24.29 25.87C23.63 26.08 22.95 26.02 22.38 25.73C21.76 25.42 21.33 24.9 21.12 24.29C20.91 23.63 20.97 22.95 21.26 22.38L22.13 22.82C21.95 23.19 21.93 23.61 22.05 23.98C22.19 24.38 22.47 24.68 22.82 24.86C23.19 25.04 23.61 25.06 23.98 24.94C24.38 24.8 24.68 24.52 24.86 24.17C25.04 23.8 25.06 23.38 24.94 23.01C24.8 22.61 24.52 22.31 24.17 22.13C23.8 21.95 23.38 21.93 23.01 22.05L22.7 21.12Z" fill="#FFFFFF" fill-opacity="1.000000" fill-rule="evenodd"/>
	<circle id="Ellipse 7" r="0.500000" transform="matrix(-1 -2.04881e-16 2.04881e-16 -1 23.5 23.5)" fill="#FFFFFF" fill-opacity="1.000000"/>
</svg>
