<?xml version="1.0" encoding="UTF-8"?>
<!DOCTYPE svg PUBLIC "-//W3C//DTD SVG 1.1//EN" "http://www.w3.org/Graphics/SVG/1.1/DTD/svg11.dtd">
<svg xmlns="http://www.w3.org/2000/svg" version="1.1" width="223px" height="226px" style="shape-rendering:geometricPrecision; text-rendering:geometricPrecision; image-rendering:optimizeQuality; fill-rule:evenodd; clip-rule:evenodd" xmlns:xlink="http://www.w3.org/1999/xlink">
<g><path style="opacity:1" fill="#fefefe" d="M -0.5,-0.5 C 33.1667,-0.5 66.8333,-0.5 100.5,-0.5C 79.0812,7.06019 61.7479,20.2269 48.5,39C 55.8288,44.1501 59.6621,51.3167 60,60.5C 60.3333,68.1667 60.6667,75.8333 61,83.5C 62.7785,85.0174 62.2785,85.8508 59.5,86C 57.9512,87.214 56.7845,88.714 56,90.5C 54.7367,98.18 55.7367,105.513 59,112.5C 61.3974,114.782 64.2307,116.116 67.5,116.5C 67.9704,121.018 69.1371,125.351 71,129.5C 75.5354,135.032 80.3687,140.199 85.5,145C 82.6751,155.159 76.3418,162.159 66.5,166C 53.9586,168.975 41.2919,171.308 28.5,173C 11.6336,177.027 1.96693,187.527 -0.5,204.5C -0.5,136.167 -0.5,67.8333 -0.5,-0.5 Z"/></g>
<g><path style="opacity:1" fill="#fefefe" d="M 109.5,-0.5 C 147.167,-0.5 184.833,-0.5 222.5,-0.5C 222.5,67.8333 222.5,136.167 222.5,204.5C 220.242,188.739 211.575,178.239 196.5,173C 184.85,170.226 173.184,167.559 161.5,165C 150.205,160.872 142.871,153.038 139.5,141.5C 142.484,138.015 145.651,134.682 149,131.5C 151.617,126.817 153.117,121.817 153.5,116.5C 157.025,116.654 159.859,115.321 162,112.5C 163.333,108.5 164.667,104.5 166,100.5C 168.126,91.6262 164.626,87.1262 155.5,87C 172.663,66.385 172.83,45.5516 156,24.5C 150.412,19.6237 143.912,16.7903 136.5,16C 129.601,6.89141 120.601,1.39141 109.5,-0.5 Z"/></g>
<g><path style="opacity:1" fill="#010101" d="M 100.5,-0.5 C 103.5,-0.5 106.5,-0.5 109.5,-0.5C 120.601,1.39141 129.601,6.89141 136.5,16C 143.912,16.7903 150.412,19.6237 156,24.5C 172.83,45.5516 172.663,66.385 155.5,87C 164.626,87.1262 168.126,91.6262 166,100.5C 164.667,104.5 163.333,108.5 162,112.5C 159.859,115.321 157.025,116.654 153.5,116.5C 153.117,121.817 151.617,126.817 149,131.5C 145.651,134.682 142.484,138.015 139.5,141.5C 142.871,153.038 150.205,160.872 161.5,165C 173.184,167.559 184.85,170.226 196.5,173C 211.575,178.239 220.242,188.739 222.5,204.5C 222.5,210.833 222.5,217.167 222.5,223.5C 221.5,223.833 220.833,224.5 220.5,225.5C 147.5,225.5 74.5,225.5 1.5,225.5C 1.16667,224.5 0.5,223.833 -0.5,223.5C -0.5,217.167 -0.5,210.833 -0.5,204.5C 1.96693,187.527 11.6336,177.027 28.5,173C 41.2919,171.308 53.9586,168.975 66.5,166C 76.3418,162.159 82.6751,155.159 85.5,145C 80.3687,140.199 75.5354,135.032 71,129.5C 69.1371,125.351 67.9704,121.018 67.5,116.5C 64.2307,116.116 61.3974,114.782 59,112.5C 55.7367,105.513 54.7367,98.18 56,90.5C 56.7845,88.714 57.9512,87.214 59.5,86C 62.2785,85.8508 62.7785,85.0174 61,83.5C 60.6667,75.8333 60.3333,68.1667 60,60.5C 59.6621,51.3167 55.8288,44.1501 48.5,39C 61.7479,20.2269 79.0812,7.06019 100.5,-0.5 Z"/></g>
<g><path style="opacity:1" fill="#fafafa" d="M 132.5,46.5 C 141.348,49.8528 146.848,56.1861 149,65.5C 149.557,75.2066 149.557,84.8733 149,94.5C 149.689,95.3567 150.522,96.0233 151.5,96.5C 154.039,93.9597 157.039,93.1263 160.5,94C 161.059,94.7247 161.392,95.5581 161.5,96.5C 159.903,100.79 158.403,105.124 157,109.5C 154,109.833 151,110.167 148,110.5C 148.305,116.912 146.972,122.912 144,128.5C 138.806,133.694 133.64,138.86 128.5,144C 116.264,151.584 104.264,151.25 92.5,143C 84.4943,137.334 78.3277,130.167 74,121.5C 73.0642,117.886 72.5642,114.22 72.5,110.5C 65.0142,112.182 61.1808,109.182 61,101.5C 60.3333,98.5 60.3333,95.5 61,92.5C 65.4161,91.9157 69.7494,91.9157 74,92.5C 70.7774,76.7779 76.6108,65.9446 91.5,60C 99.676,57.6022 108.009,55.9355 116.5,55C 122.626,53.44 127.959,50.6066 132.5,46.5 Z"/></g>
<g><path style="opacity:1" fill="#121212" d="M 88.5,77.5 C 91.941,77.3011 95.2744,77.8011 98.5,79C 99.4506,79.7175 99.6172,80.5509 99,81.5C 95.9416,81.7629 92.7749,81.9295 89.5,82C 87.5448,82.9533 85.8782,84.2866 84.5,86C 83.552,86.4828 82.552,86.6495 81.5,86.5C 81.4914,84.6916 81.9914,83.0249 83,81.5C 85.0153,80.3034 86.8487,78.9701 88.5,77.5 Z"/></g>
<g><path style="opacity:1" fill="#131313" d="M 125.5,77.5 C 130.677,76.7031 135.177,78.0364 139,81.5C 140.009,83.0249 140.509,84.6916 140.5,86.5C 139.448,86.6495 138.448,86.4828 137.5,86C 133.681,81.6969 129.015,80.3636 123.5,82C 123.043,81.586 122.709,81.086 122.5,80.5C 123.34,79.265 124.34,78.265 125.5,77.5 Z"/></g>
<g><path style="opacity:1" fill="#0f0f0f" d="M 89.5,86.5 C 97.5432,86.0028 99.2099,88.8361 94.5,95C 87.9459,94.9566 86.2793,92.1233 89.5,86.5 Z"/></g>
<g><path style="opacity:1" fill="#080808" d="M 126.5,86.5 C 133.676,85.9846 135.342,88.8179 131.5,95C 124.946,94.9566 123.279,92.1233 126.5,86.5 Z"/></g>
<g><path style="opacity:1" fill="#0b0b0b" d="M 105.5,111.5 C 109.167,112.833 112.833,112.833 116.5,111.5C 116.67,112.822 116.337,113.989 115.5,115C 112.463,116.85 109.463,116.85 106.5,115C 105.663,113.989 105.33,112.822 105.5,111.5 Z"/></g>
<g><path style="opacity:1" fill="#060606" d="M 93.5,122.5 C 104.833,122.5 116.167,122.5 127.5,122.5C 125.491,131.362 119.825,135.696 110.5,135.5C 103.677,135.337 98.1769,132.671 94,127.5C 93.5065,125.866 93.3398,124.199 93.5,122.5 Z"/></g>
<g><path style="opacity:1" fill="#eaeaea" d="M 97.5,125.5 C 105.99,124.343 114.657,124.176 123.5,125C 119.709,128.486 115.209,129.986 110,129.5C 105.143,130.047 100.977,128.714 97.5,125.5 Z"/></g>
<g><path style="opacity:1" fill="#fafafa" d="M 134.5,146.5 C 136.627,150.071 138.794,153.738 141,157.5C 144.058,161.062 147.558,164.062 151.5,166.5C 135.751,178.021 118.084,182.521 98.5,180C 89.0541,178.63 80.3875,175.297 72.5,170C 80.8222,165.016 86.9888,158.183 91,149.5C 103.259,155.566 115.759,156.066 128.5,151C 130.684,149.637 132.684,148.137 134.5,146.5 Z"/></g>
<g><path style="opacity:1" fill="#d2d2d2" d="M -0.5,223.5 C 0.5,223.833 1.16667,224.5 1.5,225.5C 0.833333,225.5 0.166667,225.5 -0.5,225.5C -0.5,224.833 -0.5,224.167 -0.5,223.5 Z"/></g>
<g><path style="opacity:1" fill="#d2d2d2" d="M 222.5,223.5 C 222.5,224.167 222.5,224.833 222.5,225.5C 221.833,225.5 221.167,225.5 220.5,225.5C 220.833,224.5 221.5,223.833 222.5,223.5 Z"/></g>
</svg>
