<?xml version="1.0" standalone="no"?>
<!DOCTYPE svg PUBLIC "-//W3C//DTD SVG 20010904//EN"
 "http://www.w3.org/TR/2001/REC-SVG-20010904/DTD/svg10.dtd">
<svg version="1.0" xmlns="http://www.w3.org/2000/svg"
 width="626.000000pt" height="417.000000pt" viewBox="0 0 626.000000 417.000000"
 preserveAspectRatio="xMidYMid meet">

<g transform="translate(0.000000,417.000000) scale(0.100000,-0.100000)"
fill="#000000" stroke="none">
<path d="M2782 3890 c-98 -26 -165 -64 -218 -123 -24 -27 -44 -53 -44 -57 0
-5 -38 -33 -84 -64 -147 -98 -234 -213 -258 -345 -11 -58 3 -442 17 -489 7
-21 6 -22 -19 -11 -39 18 -70 0 -84 -49 -26 -85 -13 -128 81 -273 54 -85 70
-99 108 -99 18 0 19 -8 19 -117 1 -134 19 -206 80 -307 42 -69 160 -198 230
-252 l50 -38 0 -113 0 -113 233 -237 233 -236 223 234 222 234 -3 132 -3 133
74 72 c41 40 94 100 119 133 89 121 109 182 113 344 3 101 6 124 19 128 49 14
63 32 117 153 67 151 79 227 43 273 -23 28 -48 34 -81 17 -10 -6 -19 -9 -19
-7 0 2 9 39 20 83 44 168 36 335 -21 484 -78 205 -268 383 -478 451 -176 56
-262 71 -446 75 -146 3 -180 1 -243 -16z"/>
<path d="M3740 1239 c0 -17 -169 -1186 -175 -1216 l-5 -23 845 0 845 0 -5 22
c-2 13 -18 99 -35 193 -58 325 -142 526 -276 661 -92 93 -158 125 -334 159
-438 85 -709 153 -842 210 -12 5 -18 3 -18 -6z"/>
<path d="M2457 1229 c-67 -38 -376 -123 -722 -199 -284 -62 -342 -87 -438
-190 -125 -135 -198 -318 -252 -635 -19 -110 -35 -201 -35 -202 0 -2 378 -3
840 -3 462 0 840 3 840 6 0 3 -34 215 -75 472 -79 491 -123 742 -134 754 -3 4
-14 2 -24 -3z"/>
<path d="M3049 834 l-73 -117 52 -46 52 -46 -70 -305 c-38 -167 -70 -308 -70
-312 0 -4 77 -8 170 -8 155 0 170 2 170 18 0 9 -24 150 -54 312 l-54 295 51
46 52 46 -40 64 c-68 111 -105 169 -110 169 -2 0 -36 -52 -76 -116z"/>
</g>
</svg>
