<svg width="31.000000" height="30.000000" viewBox="0 0 31 30" fill="none" xmlns="http://www.w3.org/2000/svg" xmlns:xlink="http://www.w3.org/1999/xlink">
	<desc>
			Created with Pixso.
	</desc>
	<defs/>
	<path id="Icon" d="M15 0C6.52 0 -0.34 6.86 -0.34 15.33C-0.34 22.11 4.05 27.84 10.15 29.88C10.91 30.01 11.2 29.55 11.2 29.15C11.2 28.78 11.18 27.58 11.18 26.29C7.33 27 6.33 25.35 6.02 24.49C5.85 24.05 5.1 22.69 4.45 22.32C3.92 22.04 3.15 21.33 4.43 21.31C5.64 21.29 6.5 22.42 6.79 22.88C8.17 25.2 10.38 24.55 11.26 24.15C11.39 23.15 11.79 22.48 12.24 22.09C8.82 21.71 5.26 20.39 5.26 14.52C5.26 12.86 5.85 11.48 6.83 10.4C6.68 10.02 6.14 8.45 6.98 6.34C6.98 6.34 8.27 5.94 11.2 7.91C12.43 7.57 13.73 7.39 15.03 7.39C16.34 7.39 17.64 7.57 18.87 7.91C21.8 5.92 23.08 6.34 23.08 6.34C23.93 8.45 23.39 10.02 23.24 10.4C24.21 11.48 24.81 12.84 24.81 14.52C24.81 20.41 21.22 21.71 17.81 22.09C18.37 22.57 18.85 23.49 18.85 24.93C18.85 26.98 18.83 28.63 18.83 29.15C18.83 29.55 19.12 30.03 19.88 29.88C25.94 27.84 30.33 22.09 30.33 15.33C30.33 6.86 23.47 0 15 0Z" fill="#FFFFFF" fill-opacity="1.000000" fill-rule="evenodd"/>
</svg>
